<svg width="170" height="170" viewBox="0 0 170 170" fill="none" xmlns="http://www.w3.org/2000/svg">
<rect width="170" height="170" fill="#F5F5F5"/>
<circle cx="85" cy="85" r="85" fill="black"/>
<path d="M43.08 70V58.1H46.531L54.385 65.665L53.773 65.427C53.705 64.917 53.6483 64.4637 53.603 64.067C53.569 63.6703 53.5407 63.3133 53.518 62.996C53.4953 62.6673 53.4783 62.3613 53.467 62.078C53.4557 61.7947 53.4443 61.5113 53.433 61.228C53.433 60.9447 53.433 60.6387 53.433 60.31V58.1H56.969V70H53.484L45.069 61.67L46.276 62.078C46.31 62.214 46.344 62.367 46.378 62.537C46.412 62.6957 46.4403 62.8883 46.463 63.115C46.497 63.3417 46.5253 63.6193 46.548 63.948C46.5707 64.2767 46.5877 64.6733 46.599 65.138C46.6103 65.5913 46.616 66.1297 46.616 66.753V70H43.08ZM64.713 70L60.735 58.1H64.475L66.09 63.013C66.158 63.2283 66.243 63.506 66.345 63.846C66.447 64.186 66.5434 64.5487 66.634 64.934C66.736 65.3193 66.821 65.6877 66.889 66.039C66.9684 66.379 67.008 66.6567 67.008 66.872H66.481C66.4924 66.5773 66.5377 66.226 66.617 65.818C66.6964 65.3987 66.8097 64.951 66.957 64.475C67.1157 63.9877 67.2914 63.506 67.484 63.03L69.014 59.273H71.938L73.468 62.996C73.6607 63.4947 73.8364 63.9877 73.995 64.475C74.1537 64.951 74.284 65.3987 74.386 65.818C74.4994 66.226 74.556 66.5773 74.556 66.872H74.063C74.063 66.702 74.08 66.4867 74.114 66.226C74.1594 65.9653 74.2104 65.6877 74.267 65.393C74.3237 65.087 74.386 64.7867 74.454 64.492C74.522 64.186 74.59 63.897 74.658 63.625C74.7374 63.353 74.811 63.1263 74.879 62.945L76.8 58.1H80.353L75.831 70H72.941L70.051 63.03H70.68L67.943 70H64.713ZM81.4494 70L87.4334 58.1H90.5954L96.5454 70H92.8394L89.6604 63.778C89.5244 63.506 89.3997 63.2567 89.2864 63.03C89.1844 62.792 89.0937 62.5653 89.0144 62.35C88.9351 62.1347 88.8614 61.9307 88.7934 61.738C88.7254 61.534 88.6631 61.3357 88.6064 61.143H89.3374C89.2807 61.347 89.2127 61.5567 89.1334 61.772C89.0654 61.976 88.9861 62.1857 88.8954 62.401C88.8047 62.6163 88.7027 62.8373 88.5894 63.064C88.4874 63.2907 88.3741 63.5287 88.2494 63.778L85.0874 70H81.4494ZM84.3224 68.402L85.4444 65.903H92.6184L93.0944 68.402H84.3224ZM100.14 70V58.1H103.812V66.872H111.292V70H100.14ZM116.188 70V66.906H119.469V61.194H116.188V58.1H126.422V61.194H123.141V66.906H126.422V70H116.188ZM6.40209 91V87.906H9.68309V82.194H6.40209V79.1H16.6361V82.194H13.3551V87.906H16.6361V91H6.40209ZM21.6219 91V88.637L29.6969 80.579L31.6689 82.432H22.0639V79.1H33.6919V81.446L25.6169 89.521L23.6619 87.872H33.8789V91H21.6219ZM44.9082 91.102C43.6048 91.102 42.4658 90.8527 41.4912 90.354C40.5165 89.8553 39.7572 89.1697 39.2132 88.297C38.6805 87.4243 38.4142 86.427 38.4142 85.305V79.1H42.1202V85.237C42.1202 85.781 42.2392 86.257 42.4772 86.665C42.7152 87.073 43.0438 87.3903 43.4632 87.617C43.8825 87.8437 44.3642 87.957 44.9082 87.957C45.4748 87.957 45.9735 87.8437 46.4042 87.617C46.8348 87.3903 47.1692 87.073 47.4072 86.665C47.6565 86.257 47.7812 85.781 47.7812 85.237V79.1H51.4022V85.305C51.4022 86.427 51.1302 87.4243 50.5862 88.297C50.0535 89.1697 49.2998 89.8553 48.3252 90.354C47.3618 90.8527 46.2228 91.102 44.9082 91.102ZM63.9123 91.17C62.8243 91.17 61.81 91.0227 60.8693 90.728C59.94 90.4333 59.124 90.014 58.4213 89.47C57.7186 88.9147 57.169 88.2573 56.7723 87.498C56.387 86.7387 56.1943 85.8943 56.1943 84.965C56.1943 84.0357 56.387 83.1913 56.7723 82.432C57.169 81.6727 57.713 81.021 58.4043 80.477C59.0956 79.9217 59.906 79.4967 60.8353 79.202C61.7646 78.9073 62.7733 78.76 63.8613 78.76C64.6093 78.76 65.329 78.8337 66.0203 78.981C66.7116 79.1283 67.3576 79.3323 67.9583 79.593C68.5703 79.8537 69.103 80.154 69.5563 80.494L67.4993 83.333C67.2613 83.129 66.961 82.9307 66.5983 82.738C66.247 82.534 65.8276 82.3697 65.3403 82.245C64.8643 82.109 64.3033 82.041 63.6573 82.041C63.2153 82.041 62.779 82.1033 62.3483 82.228C61.9176 82.3413 61.521 82.5227 61.1583 82.772C60.7956 83.01 60.5066 83.316 60.2913 83.69C60.076 84.064 59.9683 84.506 59.9683 85.016C59.9683 85.5033 60.0816 85.934 60.3083 86.308C60.5463 86.6707 60.8636 86.9767 61.2603 87.226C61.657 87.464 62.099 87.6453 62.5863 87.77C63.085 87.8833 63.595 87.94 64.1163 87.94C64.751 87.94 65.3063 87.855 65.7823 87.685C66.2583 87.5037 66.672 87.294 67.0233 87.056C67.386 86.818 67.6976 86.6083 67.9583 86.427L69.6753 89.215C69.324 89.487 68.8536 89.776 68.2643 90.082C67.675 90.388 67.0063 90.6487 66.2583 90.864C65.5216 91.068 64.7396 91.17 63.9123 91.17ZM83.5275 91V79.1H87.1995V91H83.5275ZM74.0585 91V79.1H77.7305V91H74.0585ZM75.4355 86.733L75.4695 83.537H85.6015V86.733H75.4355ZM99.2285 91.102C97.9251 91.102 96.7861 90.8527 95.8115 90.354C94.8368 89.8553 94.0775 89.1697 93.5335 88.297C93.0008 87.4243 92.7345 86.427 92.7345 85.305V79.1H96.4405V85.237C96.4405 85.781 96.5595 86.257 96.7975 86.665C97.0355 87.073 97.3641 87.3903 97.7835 87.617C98.2028 87.8437 98.6845 87.957 99.2285 87.957C99.7951 87.957 100.294 87.8437 100.724 87.617C101.155 87.3903 101.489 87.073 101.727 86.665C101.977 86.257 102.101 85.781 102.101 85.237V79.1H105.722V85.305C105.722 86.427 105.45 87.4243 104.906 88.297C104.374 89.1697 103.62 89.8553 102.645 90.354C101.682 90.8527 100.543 91.102 99.2285 91.102ZM113.592 88.263L112.453 85.509L120.647 79.1H125.118L113.592 88.263ZM111.263 91V79.1H114.935V91H111.263ZM120.953 91L115.972 85.016L118.131 82.67L125.271 91H120.953ZM131.767 91L127.789 79.1H131.529L133.144 84.013C133.212 84.2283 133.297 84.506 133.399 84.846C133.501 85.186 133.597 85.5487 133.688 85.934C133.79 86.3193 133.875 86.6877 133.943 87.039C134.022 87.379 134.062 87.6567 134.062 87.872H133.535C133.546 87.5773 133.591 87.226 133.671 86.818C133.75 86.3987 133.863 85.951 134.011 85.475C134.169 84.9877 134.345 84.506 134.538 84.03L136.068 80.273H138.992L140.522 83.996C140.714 84.4947 140.89 84.9877 141.049 85.475C141.207 85.951 141.338 86.3987 141.44 86.818C141.553 87.226 141.61 87.5773 141.61 87.872H141.117C141.117 87.702 141.134 87.4867 141.168 87.226C141.213 86.9653 141.264 86.6877 141.321 86.393C141.377 86.087 141.44 85.7867 141.508 85.492C141.576 85.186 141.644 84.897 141.712 84.625C141.791 84.353 141.865 84.1263 141.933 83.945L143.854 79.1H147.407L142.885 91H139.995L137.105 84.03H137.734L134.997 91H131.767ZM157.633 91.102C156.329 91.102 155.19 90.8527 154.216 90.354C153.241 89.8553 152.482 89.1697 151.938 88.297C151.405 87.4243 151.139 86.427 151.139 85.305V79.1H154.845V85.237C154.845 85.781 154.964 86.257 155.202 86.665C155.44 87.073 155.768 87.3903 156.188 87.617C156.607 87.8437 157.089 87.957 157.633 87.957C158.199 87.957 158.698 87.8437 159.129 87.617C159.559 87.3903 159.894 87.073 160.132 86.665C160.381 86.257 160.506 85.781 160.506 85.237V79.1H164.127V85.305C164.127 86.427 163.855 87.4243 163.311 88.297C162.778 89.1697 162.024 89.8553 161.05 90.354C160.086 90.8527 158.947 91.102 157.633 91.102ZM53.3044 112V100.1H56.9764V112H53.3044ZM43.8354 112V100.1H47.5074V112H43.8354ZM45.2124 107.733L45.2464 104.537H55.3784V107.733H45.2124ZM69.5833 112.17C68.4273 112.17 67.3733 112.017 66.4213 111.711C65.4693 111.394 64.6477 110.957 63.9563 110.402C63.265 109.835 62.7323 109.178 62.3583 108.43C61.9843 107.671 61.7973 106.849 61.7973 105.965C61.7973 105.081 61.9843 104.265 62.3583 103.517C62.7437 102.758 63.282 102.1 63.9733 101.545C64.6647 100.978 65.4807 100.542 66.4213 100.236C67.3733 99.9187 68.4217 99.76 69.5663 99.76C70.711 99.76 71.7537 99.9187 72.6943 100.236C73.6463 100.542 74.468 100.978 75.1593 101.545C75.8507 102.1 76.3833 102.758 76.7573 103.517C77.1427 104.265 77.3353 105.075 77.3353 105.948C77.3353 106.843 77.1427 107.671 76.7573 108.43C76.3833 109.178 75.8507 109.835 75.1593 110.402C74.468 110.957 73.6463 111.394 72.6943 111.711C71.7537 112.017 70.7167 112.17 69.5833 112.17ZM69.5663 108.77C70.1557 108.77 70.694 108.702 71.1813 108.566C71.68 108.419 72.105 108.22 72.4563 107.971C72.819 107.71 73.0967 107.41 73.2893 107.07C73.4933 106.73 73.5953 106.362 73.5953 105.965C73.5953 105.568 73.4933 105.2 73.2893 104.86C73.0967 104.52 72.819 104.225 72.4563 103.976C72.105 103.715 71.68 103.517 71.1813 103.381C70.694 103.234 70.1557 103.16 69.5663 103.16C68.977 103.16 68.433 103.234 67.9343 103.381C67.447 103.517 67.022 103.715 66.6593 103.976C66.2967 104.225 66.019 104.52 65.8263 104.86C65.6337 105.2 65.5373 105.568 65.5373 105.965C65.5373 106.362 65.6337 106.73 65.8263 107.07C66.019 107.41 66.2967 107.71 66.6593 107.971C67.022 108.22 67.447 108.419 67.9343 108.566C68.433 108.702 68.977 108.77 69.5663 108.77ZM87.7784 112.17C86.7357 112.17 85.778 112.085 84.9054 111.915C84.044 111.734 83.262 111.507 82.5594 111.235C81.868 110.963 81.239 110.685 80.6724 110.402L82.1174 107.495C83.194 108.084 84.265 108.509 85.3304 108.77C86.3957 109.031 87.3307 109.161 88.1354 109.161C88.362 109.161 88.6227 109.15 88.9174 109.127C89.2234 109.104 89.4897 109.042 89.7164 108.94C89.943 108.827 90.0564 108.64 90.0564 108.379C90.0564 108.254 90.0167 108.152 89.9374 108.073C89.858 107.982 89.7334 107.909 89.5634 107.852C89.3934 107.795 89.178 107.75 88.9174 107.716C88.668 107.671 88.3677 107.637 88.0164 107.614C87.665 107.58 87.2627 107.546 86.8094 107.512C85.9934 107.455 85.251 107.336 84.5824 107.155C83.925 106.962 83.3584 106.713 82.8824 106.407C82.4064 106.101 82.038 105.733 81.7774 105.302C81.5167 104.86 81.3864 104.361 81.3864 103.806C81.3864 103.149 81.5507 102.571 81.8794 102.072C82.208 101.562 82.6614 101.137 83.2394 100.797C83.8287 100.457 84.503 100.202 85.2624 100.032C86.0217 99.8507 86.832 99.76 87.6934 99.76C88.5887 99.76 89.3877 99.8337 90.0904 99.981C90.8044 100.128 91.4277 100.315 91.9604 100.542C92.5044 100.757 92.952 100.967 93.3034 101.171L91.7904 103.67C91.4164 103.489 90.98 103.336 90.4814 103.211C89.994 103.086 89.4954 102.99 88.9854 102.922C88.4754 102.843 87.9937 102.803 87.5404 102.803C87.1097 102.803 86.7244 102.826 86.3844 102.871C86.0444 102.905 85.7724 102.979 85.5684 103.092C85.3757 103.194 85.2794 103.347 85.2794 103.551C85.2794 103.732 85.387 103.874 85.6024 103.976C85.8177 104.078 86.084 104.152 86.4014 104.197C86.73 104.242 87.0587 104.276 87.3874 104.299C87.7274 104.31 88.0107 104.327 88.2374 104.35C88.9174 104.407 89.5917 104.486 90.2604 104.588C90.9404 104.679 91.5524 104.843 92.0964 105.081C92.6517 105.319 93.0937 105.676 93.4224 106.152C93.751 106.617 93.9154 107.251 93.9154 108.056C93.9154 108.94 93.6434 109.688 93.0994 110.3C92.5554 110.912 91.8187 111.377 90.8894 111.694C89.96 112.011 88.923 112.17 87.7784 112.17ZM98.4379 112V100.1H109.709V103.075H101.957V109.025H110.015V112H98.4379ZM100.359 107.376V104.588H109.08V107.376H100.359ZM113.05 112L119.034 100.1H122.196L128.146 112H124.44L121.261 105.778C121.125 105.506 121.001 105.257 120.887 105.03C120.785 104.792 120.695 104.565 120.615 104.35C120.536 104.135 120.462 103.931 120.394 103.738C120.326 103.534 120.264 103.336 120.207 103.143H120.938C120.882 103.347 120.814 103.557 120.734 103.772C120.666 103.976 120.587 104.186 120.496 104.401C120.406 104.616 120.304 104.837 120.19 105.064C120.088 105.291 119.975 105.529 119.85 105.778L116.688 112H113.05ZM115.923 110.402L117.045 107.903H124.219L124.695 110.402H115.923Z" fill="#D1D0D0"/>
</svg>
